<?xml version="1.0" encoding="UTF-8"?>
<svg id="Layer_1" data-name="Layer 1" xmlns="http://www.w3.org/2000/svg" viewBox="0 0 1024 1024">
  <defs>
    <style>
      .cls-1 {
        fill: #0a0c0f;
        stroke-width: 0px;
      }
    </style>
  </defs>
  <g>
    <path class="cls-1" d="m171.29,444.84h22.6v106.48c0,10.47-1.79,20.04-5.36,28.73-3.58,8.68-8.53,16.15-14.88,22.41s-13.92,11.11-22.72,14.56c-8.81,3.45-18.45,5.17-28.92,5.17s-19.58-1.66-28.34-4.98c-8.77-3.32-16.38-8.07-22.85-14.24-6.47-6.17-11.55-13.62-15.26-22.34-3.7-8.72-5.55-18.49-5.55-29.3v-106.48h22.6v106.35c0,7.06,1.09,13.68,3.26,19.85s5.34,11.6,9.51,16.28,9.34,8.36,15.51,11.04c6.17,2.68,13.21,4.02,21.13,4.02s14.56-1.32,20.68-3.96c6.13-2.64,11.3-6.26,15.51-10.85,4.21-4.6,7.45-9.98,9.7-16.15,2.26-6.17,3.38-12.79,3.38-19.85v-106.74Z"/>
    <path class="cls-1" d="m329.2,534.34c5.11,0,9.81-.83,14.11-2.49,4.3-1.66,8.04-4,11.24-7.02,3.19-3.02,5.68-6.66,7.47-10.92,1.79-4.26,2.68-8.98,2.68-14.17s-.91-9.94-2.74-14.24c-1.83-4.3-4.34-7.98-7.53-11.04-3.19-3.07-6.98-5.45-11.36-7.15-4.38-1.7-9.13-2.55-14.23-2.55h-50.3v69.58h50.69Zm-2.55,19.79h-48.13v64.47h-22.6v-173.64h73.79c8.43,0,16.15,1.3,23.17,3.89,7.02,2.6,13.09,6.3,18.19,11.11,5.11,4.81,9.09,10.58,11.94,17.3,2.85,6.72,4.28,14.17,4.28,22.34,0,6.47-.89,12.49-2.68,18.06-1.79,5.58-4.3,10.55-7.53,14.94-3.23,4.38-7.15,8.17-11.75,11.36-4.6,3.19-9.7,5.64-15.32,7.34l41.11,67.28h-26.17l-38.3-64.47Z"/>
    <path class="cls-1" d="m519.92,599.33c3.92,0,7.72-.74,11.43-2.23,3.7-1.49,7-3.57,9.9-6.26,2.89-2.68,5.21-5.92,6.96-9.7,1.74-3.79,2.62-7.98,2.62-12.58,0-4.34-.81-8.36-2.43-12.06-1.62-3.7-3.81-6.94-6.57-9.7-2.77-2.77-6.02-4.92-9.77-6.45-3.74-1.53-7.7-2.3-11.87-2.3h-57.07v61.28h56.81Zm-56.81-79.16h50.3c3.66,0,7.17-.72,10.53-2.17,3.36-1.45,6.32-3.4,8.87-5.87,2.55-2.47,4.57-5.4,6.06-8.81,1.49-3.4,2.24-7.11,2.24-11.11s-.74-7.6-2.24-11.04c-1.49-3.45-3.51-6.45-6.06-9-2.55-2.55-5.49-4.55-8.81-6-3.32-1.45-6.81-2.17-10.47-2.17h-50.43v56.18Zm-22.6,98.44v-173.64h74.18c7.23,0,13.87,1.11,19.92,3.32,6.04,2.21,11.26,5.34,15.64,9.38,4.38,4.04,7.81,8.87,10.28,14.49,2.47,5.62,3.7,11.83,3.7,18.64,0,4-.6,7.85-1.79,11.55-1.19,3.7-2.81,7.13-4.85,10.28-2.04,3.15-4.47,5.96-7.28,8.43-2.81,2.47-5.83,4.38-9.06,5.74,4.59,1.36,8.89,3.38,12.89,6.06,4,2.68,7.51,5.9,10.53,9.64,3.02,3.74,5.38,7.92,7.09,12.51,1.7,4.6,2.55,9.45,2.55,14.56,0,7.92-1.47,14.92-4.4,21-2.94,6.09-6.83,11.19-11.68,15.32-4.85,4.13-10.43,7.28-16.72,9.45-6.3,2.17-12.81,3.26-19.54,3.26h-81.46Z"/>
  </g>
  <path class="cls-1" d="m658.43,560h71.24l-34.86-82.48-.77-3.19-.76,3.19-34.86,82.48Zm79.54,19.66h-87.84l-16.47,38.94h-24l73.54-173.64h21.7l73.54,173.64h-24l-16.47-38.94Z"/>
  <polygon class="cls-1" points="950.66 444.97 950.66 579.15 843.67 444.97 824.64 444.97 824.64 618.6 847.24 618.6 847.24 484.67 954.1 618.6 973.25 618.6 973.25 444.97 950.66 444.97"/>
  <path class="cls-1" d="m365.33,808.41h71.24l-34.86-82.48-.76-3.19-.77,3.19-34.86,82.48Zm79.54,19.66h-87.84l-16.47,38.94h-24l73.54-173.64h21.7l73.54,173.64h-24l-16.47-38.94Z"/>
  <path class="cls-1" d="m542.27,816.58c0,4.51,1.13,8.83,3.38,12.96s5.36,7.77,9.32,10.92c3.96,3.15,8.62,5.66,13.98,7.53,5.36,1.87,11.19,2.81,17.49,2.81,16.09,0,28.15-2.7,36.2-8.11,8.04-5.41,12.07-13.3,12.07-23.68,0-5.7-1.26-10.43-3.77-14.17-2.51-3.74-5.98-6.87-10.4-9.38s-9.62-4.53-15.58-6.07c-5.96-1.53-12.43-2.94-19.41-4.21-4-.59-8.28-1.3-12.83-2.11-4.55-.81-9.07-1.87-13.53-3.19-4.47-1.32-8.77-2.98-12.89-4.98-4.13-2-7.75-4.51-10.85-7.53-3.11-3.02-5.6-6.64-7.47-10.85-1.87-4.21-2.81-9.21-2.81-15,0-7.07,1.17-13.75,3.51-20.04,2.34-6.3,6.13-11.83,11.36-16.6,5.23-4.77,12.04-8.53,20.43-11.3,8.38-2.77,18.58-4.15,30.58-4.15,9.28,0,17.6,1.21,24.96,3.64,7.36,2.43,13.62,5.85,18.77,10.28,5.15,4.43,9.09,9.68,11.81,15.77,2.72,6.09,4.09,12.75,4.09,19.98h-22.73c0-4.43-.89-8.45-2.68-12.07-1.79-3.62-4.34-6.72-7.66-9.32-3.32-2.6-7.38-4.62-12.19-6.07-4.81-1.45-10.24-2.17-16.28-2.17-8,0-14.66.87-19.98,2.62-5.32,1.74-9.55,4.04-12.7,6.89-3.15,2.85-5.36,6.09-6.64,9.7-1.28,3.62-1.91,7.26-1.91,10.92,0,4.77,1.17,8.77,3.51,12,2.34,3.23,5.62,5.89,9.83,7.98s9.26,3.77,15.13,5.04c5.87,1.28,12.3,2.34,19.28,3.19,7.4,1.28,14.79,2.94,22.15,4.98,7.36,2.04,14,4.94,19.92,8.68,5.92,3.74,10.7,8.62,14.36,14.62,3.66,6,5.49,13.64,5.49,22.92,0,8.17-1.64,15.45-4.92,21.83-3.28,6.38-8,11.79-14.17,16.21-6.17,4.43-13.68,7.81-22.53,10.15-8.85,2.34-18.81,3.51-29.87,3.51s-20.22-1.59-28.47-4.79c-8.25-3.19-15.19-7.34-20.81-12.45-5.62-5.11-9.87-10.9-12.77-17.36-2.89-6.47-4.34-12.98-4.34-19.53h22.6Z"/>
  <rect class="cls-1" x="712.95" y="693.37" width="22.6" height="173.64"/>
  <g>
    <path class="cls-1" d="m812.26,816.58c0,4.51,1.13,8.83,3.38,12.96,2.26,4.13,5.36,7.77,9.32,10.92,3.96,3.15,8.62,5.66,13.98,7.53,5.36,1.87,11.19,2.81,17.49,2.81,16.09,0,28.15-2.7,36.2-8.11,8.04-5.41,12.07-13.3,12.07-23.68,0-5.7-1.26-10.43-3.77-14.17s-5.98-6.87-10.4-9.38c-4.43-2.51-9.62-4.53-15.58-6.07-5.96-1.53-12.43-2.94-19.41-4.21-4-.59-8.28-1.3-12.83-2.11-4.55-.81-9.07-1.87-13.53-3.19-4.47-1.32-8.77-2.98-12.9-4.98s-7.75-4.51-10.85-7.53c-3.11-3.02-5.6-6.64-7.47-10.85s-2.81-9.21-2.81-15c0-7.07,1.17-13.75,3.51-20.04,2.34-6.3,6.13-11.83,11.36-16.6,5.23-4.77,12.04-8.53,20.43-11.3,8.38-2.77,18.58-4.15,30.58-4.15,9.28,0,17.6,1.21,24.96,3.64,7.36,2.43,13.62,5.85,18.77,10.28,5.15,4.43,9.09,9.68,11.81,15.77,2.72,6.09,4.09,12.75,4.09,19.98h-22.73c0-4.43-.89-8.45-2.68-12.07-1.79-3.62-4.34-6.72-7.66-9.32-3.32-2.6-7.38-4.62-12.19-6.07-4.81-1.45-10.24-2.17-16.28-2.17-8,0-14.66.87-19.98,2.62-5.32,1.74-9.55,4.04-12.7,6.89-3.15,2.85-5.36,6.09-6.64,9.7-1.28,3.62-1.91,7.26-1.91,10.92,0,4.77,1.17,8.77,3.51,12,2.34,3.23,5.62,5.89,9.83,7.98s9.26,3.77,15.13,5.04c5.87,1.28,12.3,2.34,19.28,3.19,7.4,1.28,14.79,2.94,22.15,4.98,7.36,2.04,14,4.94,19.92,8.68,5.92,3.74,10.7,8.62,14.36,14.62,3.66,6,5.49,13.64,5.49,22.92,0,8.17-1.64,15.45-4.92,21.83-3.28,6.38-8,11.79-14.17,16.21-6.17,4.43-13.68,7.81-22.53,10.15-8.85,2.34-18.81,3.51-29.87,3.51s-20.22-1.59-28.47-4.79c-8.26-3.19-15.19-7.34-20.81-12.45-5.62-5.11-9.88-10.9-12.77-17.36-2.89-6.47-4.34-12.98-4.34-19.53h22.6Z"/>
    <path class="cls-1" d="m251.21,781.88c-1.4,5.1-3.39,9.85-5.97,14.26-2.58,4.41-5.69,8.41-9.31,12-3.63,3.59-7.64,6.66-12.06,9.2-4.41,2.55-9.15,4.52-14.21,5.92-5.06,1.4-10.35,2.1-15.88,2.1s-10.71-.7-15.77-2.1c-5.06-1.4-9.78-3.37-14.15-5.92-4.38-2.55-8.38-5.62-12-9.2-3.63-3.59-6.73-7.59-9.31-12-2.58-4.41-4.57-9.17-5.97-14.26-1.4-5.1-2.1-10.44-2.1-16.04,0-8.4,1.56-16.23,4.68-23.52,3.12-7.28,7.36-13.62,12.7-19,5.35-5.38,11.63-9.6,18.84-12.65,7.21-3.05,14.91-4.57,23.09-4.57s15.99,1.53,23.2,4.57c7.21,3.05,13.51,7.27,18.89,12.65,5.38,5.38,9.64,11.72,12.76,19,3.12,7.28,4.68,15.12,4.68,23.52,0,5.6-.7,10.94-2.1,16.04m18.35-36.49c-1.87-6.53-4.5-12.63-7.91-18.3-3.41-5.67-7.52-10.82-12.33-15.45-4.81-4.63-10.12-8.6-15.93-11.9-5.81-3.3-12.06-5.85-18.73-7.64-6.68-1.79-13.63-2.69-20.88-2.69s-14.21.9-20.88,2.69c-6.67,1.79-12.9,4.34-18.68,7.64-5.78,3.3-11.05,7.27-15.82,11.9-4.77,4.63-8.86,9.78-12.27,15.45-3.41,5.67-6.05,11.77-7.91,18.3-1.87,6.53-2.8,13.35-2.8,20.45s.93,13.81,2.8,20.34c1.86,6.53,4.5,12.61,7.91,18.25,3.41,5.63,7.5,10.76,12.27,15.39l55.62,50.88,55.31-50.88c4.81-4.63,8.92-9.76,12.33-15.39,3.41-5.63,6.05-11.72,7.91-18.25,1.87-6.53,2.8-13.31,2.8-20.34s-.93-13.92-2.8-20.45"/>
  </g>
  <rect class="cls-1" x="185.72" y="319.39" width="651.75" height="5.09"/>
  <rect class="cls-1" x="370.16" y="344.86" width="282.87" height="5.09"/>
  <g>
    <path class="cls-1" d="m531.54,185.78c0,11.01-8.93,19.94-19.94,19.94s-19.94-8.93-19.94-19.94,8.93-19.94,19.94-19.94,19.94,8.93,19.94,19.94"/>
    <path class="cls-1" d="m531.54,269.67c0,11.01-8.93,19.94-19.94,19.94s-19.94-8.93-19.94-19.94,8.93-19.94,19.94-19.94,19.94,8.93,19.94,19.94"/>
    <path class="cls-1" d="m511.59,217.53c-17.54,0-31.76-14.22-31.76-31.76s14.22-31.76,31.76-31.76,31.76,14.22,31.76,31.76-14.22,31.76-31.76,31.76m56.08-22.82v99.21h-13.34v-160.27h-85.49v160.27h-13.33v-99.21l-85.49,23.05v76.15h0v5.1h129.43c-11.52-4.77-19.62-16.1-19.62-29.35,0-17.54,14.22-31.76,31.76-31.76s31.76,14.22,31.76,31.76c0,13.24-8.11,24.58-19.62,29.35h129.43v-5.1h0v-76.15l-85.48-23.05Z"/>
  </g>
</svg>