<?xml version="1.0" encoding="UTF-8"?>
<svg id="Layer_1" data-name="Layer 1" xmlns="http://www.w3.org/2000/svg" viewBox="0 0 1024 1024">
  <defs>
    <style>
      .cls-1 {
        fill: #f9fafb;
        stroke-width: 0px;
      }
    </style>
  </defs>
  <g>
    <path class="cls-1" d="m171.51,444.74h22.64v106.67c0,10.49-1.79,20.08-5.37,28.78-3.58,8.7-8.55,16.18-14.9,22.45-6.35,6.27-13.94,11.13-22.77,14.58-8.82,3.45-18.48,5.18-28.97,5.18s-19.61-1.66-28.39-4.99c-8.78-3.33-16.41-8.08-22.89-14.26-6.48-6.18-11.58-13.64-15.28-22.38-3.71-8.74-5.56-18.52-5.56-29.35v-106.67h22.64v106.54c0,7.08,1.09,13.71,3.26,19.89,2.17,6.18,5.35,11.62,9.53,16.31s9.36,8.38,15.54,11.06c6.18,2.69,13.24,4.03,21.17,4.03s14.58-1.32,20.72-3.96c6.14-2.64,11.32-6.27,15.54-10.87,4.22-4.6,7.46-10,9.72-16.18,2.26-6.18,3.39-12.81,3.39-19.89v-106.93Z"/>
    <path class="cls-1" d="m329.7,534.4c5.12,0,9.83-.83,14.13-2.5,4.31-1.66,8.06-4.01,11.26-7.03,3.2-3.03,5.69-6.67,7.48-10.94,1.79-4.26,2.68-9,2.68-14.2s-.92-9.96-2.75-14.26c-1.83-4.31-4.35-7.99-7.55-11.06-3.2-3.07-6.99-5.46-11.38-7.16-4.39-1.71-9.14-2.56-14.26-2.56h-50.39v69.71h50.78Zm-2.56,19.82h-48.22v64.59h-22.64v-173.95h73.92c8.44,0,16.18,1.3,23.22,3.9,7.03,2.6,13.11,6.31,18.22,11.13,5.12,4.82,9.1,10.59,11.96,17.33,2.86,6.73,4.28,14.2,4.28,22.38,0,6.48-.89,12.51-2.69,18.1-1.79,5.59-4.3,10.57-7.55,14.97-3.24,4.39-7.16,8.19-11.77,11.38-4.6,3.2-9.72,5.65-15.35,7.35l41.18,67.4h-26.22l-38.37-64.59Z"/>
    <path class="cls-1" d="m520.76,599.5c3.92,0,7.74-.75,11.45-2.24,3.71-1.49,7.01-3.58,9.91-6.27,2.9-2.69,5.22-5.93,6.97-9.72,1.75-3.79,2.62-7.99,2.62-12.6,0-4.35-.81-8.38-2.43-12.09-1.62-3.71-3.82-6.95-6.59-9.72-2.77-2.77-6.03-4.92-9.78-6.46-3.75-1.53-7.72-2.3-11.89-2.3h-57.17v61.39h56.92Zm-56.92-79.3h50.39c3.67,0,7.18-.72,10.55-2.17,3.37-1.45,6.33-3.41,8.89-5.88,2.56-2.47,4.58-5.41,6.07-8.83,1.49-3.41,2.24-7.12,2.24-11.13s-.74-7.61-2.24-11.06c-1.49-3.45-3.52-6.46-6.07-9.02s-5.5-4.56-8.83-6.01c-3.32-1.45-6.82-2.17-10.49-2.17h-50.52v56.28Zm-22.64,98.61v-173.95h74.31c7.25,0,13.9,1.11,19.95,3.32,6.05,2.22,11.28,5.35,15.67,9.4,4.39,4.05,7.82,8.89,10.3,14.52,2.47,5.63,3.71,11.85,3.71,18.67,0,4.01-.6,7.86-1.79,11.57-1.19,3.71-2.81,7.14-4.86,10.3-2.05,3.15-4.48,5.97-7.29,8.44-2.81,2.47-5.84,4.39-9.08,5.76,4.6,1.36,8.91,3.39,12.92,6.07,4.01,2.69,7.53,5.91,10.55,9.66,3.03,3.75,5.39,7.93,7.1,12.53,1.71,4.6,2.56,9.47,2.56,14.58,0,7.93-1.47,14.94-4.41,21.04-2.94,6.1-6.84,11.21-11.7,15.35s-10.45,7.29-16.76,9.46c-6.31,2.17-12.83,3.26-19.57,3.26h-81.6Z"/>
  </g>
  <path class="cls-1" d="m659.52,560.11h71.37l-34.92-82.62-.77-3.2-.77,3.2-34.92,82.62Zm79.68,19.7h-88l-16.5,39.01h-24.04l73.67-173.95h21.74l73.67,173.95h-24.04l-16.5-39.01Z"/>
  <polygon class="cls-1" points="952.26 444.87 952.26 579.29 845.08 444.87 826.02 444.87 826.02 618.81 848.66 618.81 848.66 484.64 955.71 618.81 974.9 618.81 974.9 444.87 952.26 444.87"/>
  <path class="cls-1" d="m365.89,808.95h71.37l-34.92-82.62-.77-3.2-.77,3.2-34.92,82.62Zm79.68,19.7h-88l-16.5,39.01h-24.04l73.67-173.95h21.74l73.67,173.95h-24.04l-16.5-39.01Z"/>
  <path class="cls-1" d="m543.14,817.14c0,4.52,1.13,8.85,3.39,12.98s5.37,7.78,9.34,10.94c3.96,3.16,8.63,5.67,14.01,7.55,5.37,1.88,11.21,2.81,17.52,2.81,16.12,0,28.2-2.71,36.26-8.12,8.06-5.42,12.09-13.32,12.09-23.73,0-5.71-1.26-10.45-3.77-14.2-2.52-3.75-5.99-6.89-10.42-9.4-4.43-2.52-9.64-4.54-15.61-6.08-5.97-1.53-12.45-2.94-19.44-4.22-4.01-.6-8.29-1.3-12.86-2.11-4.56-.81-9.08-1.88-13.56-3.2-4.48-1.32-8.78-2.98-12.92-4.99-4.13-2-7.76-4.52-10.87-7.55-3.11-3.03-5.61-6.65-7.48-10.87-1.88-4.22-2.81-9.23-2.81-15.03,0-7.08,1.17-13.77,3.52-20.08,2.35-6.31,6.14-11.85,11.38-16.63,5.25-4.78,12.07-8.55,20.47-11.32,8.4-2.77,18.61-4.16,30.63-4.16,9.29,0,17.63,1.22,25,3.65,7.38,2.43,13.64,5.86,18.8,10.3,5.16,4.43,9.1,9.7,11.83,15.8,2.73,6.1,4.09,12.77,4.09,20.02h-22.77c0-4.43-.89-8.46-2.69-12.09-1.79-3.62-4.35-6.73-7.67-9.34-3.32-2.6-7.4-4.63-12.21-6.08-4.82-1.45-10.25-2.17-16.31-2.17-8.01,0-14.69.87-20.02,2.62-5.33,1.75-9.57,4.05-12.73,6.91-3.15,2.86-5.37,6.1-6.65,9.72-1.28,3.63-1.92,7.27-1.92,10.94,0,4.77,1.17,8.78,3.52,12.02,2.35,3.24,5.63,5.9,9.85,7.99s9.27,3.77,15.16,5.05c5.88,1.28,12.32,2.35,19.31,3.2,7.42,1.28,14.81,2.94,22.19,4.99,7.37,2.05,14.03,4.95,19.95,8.7,5.93,3.75,10.72,8.63,14.39,14.64,3.67,6.01,5.5,13.66,5.5,22.96,0,8.19-1.64,15.48-4.93,21.87-3.28,6.4-8.01,11.81-14.2,16.24-6.18,4.43-13.71,7.82-22.57,10.17-8.87,2.35-18.84,3.52-29.93,3.52s-20.25-1.6-28.52-4.8c-8.27-3.2-15.22-7.35-20.85-12.47-5.63-5.12-9.89-10.91-12.79-17.4-2.9-6.48-4.35-13-4.35-19.57h22.64Z"/>
  <rect class="cls-1" x="714.13" y="693.71" width="22.64" height="173.95"/>
  <g>
    <path class="cls-1" d="m813.62,817.14c0,4.52,1.13,8.85,3.39,12.98s5.37,7.78,9.34,10.94c3.96,3.16,8.63,5.67,14.01,7.55,5.37,1.88,11.21,2.81,17.52,2.81,16.12,0,28.2-2.71,36.26-8.12,8.06-5.42,12.09-13.32,12.09-23.73,0-5.71-1.26-10.45-3.77-14.2s-5.99-6.89-10.42-9.4c-4.43-2.52-9.64-4.54-15.61-6.08-5.97-1.53-12.45-2.94-19.44-4.22-4.01-.6-8.29-1.3-12.86-2.11-4.56-.81-9.08-1.88-13.56-3.2-4.48-1.32-8.78-2.98-12.92-4.99-4.14-2-7.76-4.52-10.87-7.55-3.11-3.03-5.61-6.65-7.48-10.87s-2.81-9.23-2.81-15.03c0-7.08,1.17-13.77,3.52-20.08,2.35-6.31,6.14-11.85,11.38-16.63,5.25-4.78,12.07-8.55,20.47-11.32,8.4-2.77,18.61-4.16,30.63-4.16,9.29,0,17.63,1.22,25,3.65,7.38,2.43,13.64,5.86,18.8,10.3,5.16,4.43,9.1,9.7,11.83,15.8,2.73,6.1,4.09,12.77,4.09,20.02h-22.77c0-4.43-.89-8.46-2.69-12.09-1.79-3.62-4.35-6.73-7.67-9.34-3.32-2.6-7.4-4.63-12.21-6.08-4.82-1.45-10.25-2.17-16.31-2.17-8.01,0-14.69.87-20.02,2.62-5.33,1.75-9.57,4.05-12.73,6.91-3.15,2.86-5.37,6.1-6.65,9.72-1.28,3.63-1.92,7.27-1.92,10.94,0,4.77,1.17,8.78,3.52,12.02,2.35,3.24,5.63,5.9,9.85,7.99s9.27,3.77,15.16,5.05c5.88,1.28,12.32,2.35,19.31,3.2,7.42,1.28,14.81,2.94,22.19,4.99,7.37,2.05,14.03,4.95,19.95,8.7,5.93,3.75,10.72,8.63,14.39,14.64,3.67,6.01,5.5,13.66,5.5,22.96,0,8.19-1.64,15.48-4.93,21.87-3.28,6.4-8.01,11.81-14.2,16.24-6.18,4.43-13.71,7.82-22.57,10.17-8.87,2.35-18.84,3.52-29.93,3.52s-20.25-1.6-28.52-4.8c-8.27-3.2-15.22-7.35-20.85-12.47-5.63-5.12-9.89-10.91-12.79-17.4-2.9-6.48-4.35-13-4.35-19.57h22.64Z"/>
    <path class="cls-1" d="m251.57,782.38c-1.4,5.1-3.4,9.87-5.98,14.29-2.59,4.42-5.7,8.43-9.33,12.02-3.63,3.59-7.66,6.67-12.08,9.22-4.42,2.55-9.17,4.53-14.23,5.93-5.07,1.4-10.37,2.1-15.91,2.1s-10.73-.7-15.8-2.1c-5.07-1.4-9.79-3.38-14.18-5.93-4.39-2.55-8.39-5.63-12.02-9.22-3.63-3.59-6.74-7.6-9.33-12.02-2.59-4.42-4.58-9.18-5.98-14.29-1.4-5.1-2.1-10.46-2.1-16.07,0-8.41,1.56-16.26,4.69-23.56,3.13-7.3,7.37-13.64,12.72-19.03,5.36-5.39,11.65-9.61,18.87-12.67,7.22-3.05,14.94-4.58,23.13-4.58s16.01,1.53,23.24,4.58c7.23,3.06,13.53,7.28,18.93,12.67s9.65,11.74,12.78,19.03c3.13,7.3,4.69,15.15,4.69,23.56,0,5.61-.7,10.96-2.1,16.07m18.39-36.56c-1.87-6.54-4.51-12.65-7.93-18.33-3.42-5.68-7.53-10.84-12.35-15.47-4.82-4.64-10.14-8.61-15.96-11.92-5.82-3.31-12.08-5.86-18.76-7.66-6.69-1.8-13.66-2.7-20.92-2.7s-14.23.9-20.92,2.7c-6.69,1.8-12.92,4.35-18.71,7.66-5.79,3.31-11.07,7.28-15.85,11.92-4.78,4.64-8.88,9.8-12.29,15.47-3.42,5.68-6.06,11.79-7.93,18.33-1.87,6.54-2.8,13.37-2.8,20.49s.93,13.84,2.8,20.38c1.87,6.54,4.51,12.64,7.93,18.28,3.41,5.64,7.51,10.78,12.29,15.42l55.72,50.98,55.41-50.98c4.82-4.64,8.93-9.78,12.35-15.42,3.42-5.64,6.06-11.74,7.93-18.28,1.87-6.54,2.8-13.34,2.8-20.38s-.93-13.95-2.8-20.49"/>
  </g>
  <rect class="cls-1" x="185.96" y="319.06" width="652.91" height="5.1"/>
  <rect class="cls-1" x="370.73" y="344.58" width="283.38" height="5.1"/>
  <g>
    <path class="cls-1" d="m532.39,185.22c0,11.03-8.94,19.98-19.98,19.98s-19.98-8.94-19.98-19.98,8.94-19.98,19.98-19.98,19.98,8.94,19.98,19.98"/>
    <path class="cls-1" d="m532.39,269.25c0,11.03-8.94,19.98-19.98,19.98s-19.98-8.94-19.98-19.98,8.94-19.98,19.98-19.98,19.98,8.94,19.98,19.98"/>
    <path class="cls-1" d="m512.41,217.03c-17.57,0-31.81-14.24-31.81-31.81s14.24-31.81,31.81-31.81,31.81,14.24,31.81,31.81-14.24,31.81-31.81,31.81m56.18-22.86v99.38h-13.36v-160.56h-85.64v160.56h-13.36v-99.38l-85.64,23.09v76.29h0v5.1h129.66c-11.54-4.78-19.66-16.13-19.66-29.4,0-17.57,14.24-31.81,31.81-31.81s31.81,14.24,31.81,31.81c0,13.26-8.12,24.62-19.66,29.4h129.66v-5.1h0v-76.29l-85.64-23.09Z"/>
  </g>
</svg>