<?xml version="1.0" encoding="UTF-8"?>
<svg id="Layer_1" data-name="Layer 1" xmlns="http://www.w3.org/2000/svg" viewBox="0 0 1024 1024">
  <defs>
    <style>
      .cls-1 {
        fill: #0a0c0f;
        stroke-width: 0px;
      }
    </style>
  </defs>
  <path class="cls-1" d="m656.19,282.6c-3.52,12.82-8.53,24.78-15.03,35.88-6.5,11.1-14.31,21.17-23.42,30.19-9.12,9.03-19.23,16.74-30.33,23.15-11.1,6.41-23.02,11.37-35.74,14.89-12.73,3.52-26.04,5.28-39.94,5.28s-26.94-1.76-39.67-5.28c-12.73-3.52-24.6-8.48-35.61-14.89-11.01-6.41-21.08-14.13-30.19-23.15-9.12-9.02-16.92-19.09-23.42-30.19-6.5-11.1-11.51-23.06-15.03-35.88-3.52-12.82-5.28-26.26-5.28-40.35,0-21.12,3.93-40.84,11.78-59.17,7.85-18.32,18.5-34.25,31.95-47.79,13.45-13.54,29.24-24.15,47.39-31.82,18.14-7.67,37.5-11.51,58.08-11.51s40.21,3.84,58.35,11.51c18.14,7.67,33.99,18.28,47.52,31.82,13.54,13.54,24.23,29.47,32.09,47.79,7.85,18.32,11.78,38.05,11.78,59.17,0,14.08-1.76,27.53-5.28,40.35m46.17-91.8c-4.69-16.43-11.33-31.77-19.9-46.03-8.58-14.26-18.91-27.21-31.01-38.86-12.1-11.64-25.46-21.62-40.08-29.92-14.62-8.3-30.33-14.71-47.11-19.23-16.79-4.51-34.3-6.77-52.53-6.77s-35.74,2.26-52.53,6.77c-16.79,4.51-32.45,10.92-46.98,19.23-14.53,8.31-27.8,18.28-39.81,29.92-12,11.64-22.29,24.6-30.87,38.86-8.57,14.26-15.21,29.61-19.9,46.03-4.7,16.43-7.04,33.58-7.04,51.45s2.35,34.75,7.04,51.18c4.69,16.43,11.33,31.73,19.9,45.9,8.58,14.17,18.86,27.08,30.87,38.72l139.91,128,139.13-128h0,0c12.09-11.64,22.43-24.55,31.01-38.72,8.57-14.17,15.21-29.47,19.9-45.9,4.7-16.43,7.04-33.49,7.04-51.18s-2.35-35.02-7.04-51.45"/>
  <path class="cls-1" d="m562.17,687.47c0,27.7-22.46,50.16-50.16,50.16s-50.17-22.46-50.17-50.16,22.46-50.16,50.17-50.16,50.16,22.46,50.16,50.16"/>
  <path class="cls-1" d="m562.17,898.5c0,27.7-22.46,50.16-50.16,50.16s-50.17-22.46-50.17-50.16,22.46-50.17,50.17-50.17,50.16,22.46,50.16,50.17"/>
  <path class="cls-1" d="m512,767.36c-44.12,0-79.88-35.77-79.88-79.88s35.76-79.89,79.88-79.89,79.88,35.77,79.88,79.89-35.77,79.88-79.88,79.88m141.07-57.41v249.56h-33.55v-403.17h-215.04v403.17h-33.54v-249.56l-215.04,57.99v191.57h0v12.82h325.6c-28.97-11.99-49.37-40.51-49.37-73.81,0-44.12,35.77-79.89,79.89-79.89s79.88,35.77,79.88,79.89c0,33.3-20.39,61.82-49.36,73.81h325.59v-12.82h0v-191.57l-215.04-57.99Z"/>
</svg>