<?xml version="1.0" encoding="UTF-8"?>
<svg id="Layer_1" data-name="Layer 1" xmlns="http://www.w3.org/2000/svg" viewBox="0 0 1024 1024">
  <defs>
    <style>
      .cls-1 {
        fill: #f9fafb;
        stroke-width: 0px;
      }
    </style>
  </defs>
  <path class="cls-1" d="m808.8,521.68c-7.12,25.95-17.26,50.16-30.42,72.63-13.16,22.47-28.96,42.84-47.41,61.11-18.45,18.27-38.92,33.89-61.39,46.86-22.47,12.98-46.59,23.02-72.35,30.15-25.76,7.13-52.71,10.69-80.85,10.69s-54.54-3.56-80.3-10.69c-25.76-7.12-49.79-17.17-72.08-30.15-22.29-12.97-42.67-28.59-61.12-46.86-18.46-18.27-34.26-38.64-47.41-61.11-13.16-22.47-23.29-46.68-30.42-72.63-7.13-25.94-10.69-53.16-10.69-81.67,0-42.75,7.95-82.68,23.85-119.77,15.89-37.09,37.46-69.33,64.68-96.74,27.22-27.41,59.2-48.88,95.92-64.41,36.73-15.53,75.92-23.29,117.57-23.29s81.4,7.76,118.12,23.29c36.73,15.53,68.79,37,96.2,64.41,27.4,27.41,49.06,59.66,64.95,96.74,15.9,37.09,23.84,77.01,23.84,119.77,0,28.51-3.57,55.73-10.69,81.67m93.45-185.81c-9.5-33.25-22.93-64.31-40.28-93.18-17.36-28.87-38.29-55.08-62.76-78.65-24.49-23.57-51.53-43.76-81.12-60.57-29.6-16.81-61.39-29.78-95.37-38.92-33.99-9.13-69.43-13.7-106.34-13.7s-72.35,4.57-106.33,13.7c-33.98,9.14-65.68,22.11-95.1,38.92-29.42,16.81-56.27,37-80.57,60.57-24.3,23.57-45.12,49.79-62.49,78.65-17.36,28.87-30.78,59.93-40.28,93.18-9.5,33.25-14.25,67.97-14.25,104.14s4.75,70.34,14.25,103.59c9.5,33.25,22.92,64.23,40.28,92.91,17.36,28.69,38.19,54.81,62.49,78.38l283.21,259.11,281.63-259.11h0,0c24.48-23.57,45.4-49.7,62.76-78.38,17.36-28.68,30.78-59.66,40.28-92.91,9.5-33.25,14.25-67.78,14.25-103.59s-4.75-70.89-14.25-104.14"/>
</svg>