<?xml version="1.0" encoding="UTF-8"?>
<svg id="Layer_1" data-name="Layer 1" xmlns="http://www.w3.org/2000/svg" viewBox="0 0 1024 1024">
  <defs>
    <style>
      .cls-1 {
        fill: #0a0c0f;
        stroke-width: 0px;
      }
    </style>
  </defs>
  <path class="cls-1" d="m809.07,521.26c-7.13,25.97-17.28,50.2-30.45,72.7-13.17,22.49-28.98,42.88-47.46,61.17-18.47,18.29-38.95,33.93-61.45,46.91-22.49,12.99-46.63,23.05-72.42,30.18-25.78,7.13-52.76,10.7-80.92,10.7s-54.59-3.56-80.37-10.7c-25.78-7.13-49.83-17.19-72.14-30.18-22.31-12.98-42.71-28.62-61.17-46.91-18.47-18.28-34.29-38.68-47.46-61.17-13.17-22.49-23.32-46.73-30.45-72.7-7.13-25.96-10.7-53.21-10.7-81.74,0-42.79,7.96-82.75,23.87-119.87,15.91-37.12,37.49-69.4,64.74-96.83,27.25-27.43,59.25-48.92,96.01-64.47,36.76-15.55,75.99-23.32,117.68-23.32s81.47,7.77,118.23,23.32c36.76,15.55,68.86,37.03,96.29,64.47,27.43,27.43,49.1,59.71,65.01,96.83,15.91,37.12,23.87,77.08,23.87,119.87,0,28.53-3.57,55.78-10.7,81.74m93.54-185.98c-9.51-33.28-22.95-64.37-40.32-93.26-17.38-28.89-38.32-55.13-62.82-78.73-24.51-23.59-51.57-43.8-81.2-60.63-29.62-16.82-61.45-29.81-95.46-38.95-34.02-9.14-69.49-13.71-106.44-13.71s-72.42,4.57-106.43,13.71c-34.01,9.15-65.74,22.13-95.19,38.95-29.44,16.83-56.33,37.03-80.65,60.63-24.32,23.59-45.17,49.83-62.54,78.73-17.37,28.89-30.81,59.98-40.32,93.26-9.51,33.28-14.26,68.03-14.26,104.24s4.75,70.41,14.26,103.69c9.51,33.28,22.95,64.29,40.32,92.99,17.38,28.71,38.22,54.86,62.54,78.45l283.47,259.34,281.89-259.34h0,0c24.5-23.59,45.44-49.74,62.82-78.45,17.37-28.71,30.81-59.71,40.32-92.99,9.51-33.28,14.26-67.85,14.26-103.69s-4.75-70.95-14.26-104.24"/>
</svg>