<?xml version="1.0" encoding="UTF-8"?>
<svg id="Layer_1" data-name="Layer 1" xmlns="http://www.w3.org/2000/svg" viewBox="0 0 1024 1024">
  <defs>
    <style>
      .cls-1 {
        fill: #f9fafb;
        stroke-width: 0px;
      }
    </style>
  </defs>
  <path class="cls-1" d="m574.79,413.9c0,35.79-29.01,64.8-64.8,64.8s-64.8-29.01-64.8-64.8,29.01-64.8,64.8-64.8,64.8,29.01,64.8,64.8"/>
  <path class="cls-1" d="m574.79,686.49c0,35.79-29.01,64.8-64.8,64.8s-64.8-29.01-64.8-64.8,29.01-64.8,64.8-64.8,64.8,29.01,64.8,64.8"/>
  <path class="cls-1" d="m512,515.94c-57.24,0-103.64-46.4-103.64-103.63s46.4-103.64,103.64-103.64,103.64,46.4,103.64,103.64-46.4,103.63-103.64,103.63m183.02-74.49v323.76h-43.52V242.16h-278.98v523.04h-43.52v-323.76l-278.98,75.23v248.53h-.01v16.63h422.41c-37.58-15.56-64.04-52.56-64.04-95.76,0-57.24,46.4-103.64,103.64-103.64s103.63,46.4,103.63,103.64c0,43.2-26.46,80.21-64.04,95.76h422.4v-16.63h0v-248.53l-278.98-75.23Z"/>
</svg>